<svg id="Layer_1" data-name="Layer 1" xmlns="http://www.w3.org/2000/svg" xmlns:xlink="http://www.w3.org/1999/xlink" viewBox="0 0 368.58 346.82">
  <defs>
    <style>
      .cls-1, .cls-4, .cls-6 {
        fill: none;
      }

      .cls-2 {
        clip-path: url(#clip-path);
      }

      .cls-3 {
        stroke: #5043ef;
      }

      .cls-3, .cls-4, .cls-5, .cls-6 {
        stroke-miterlimit: 10;
      }

      .cls-4 {
        stroke: #8886e2;
        stroke-width: 3px;
      }

      .cls-5 {
        fill: #fff;
      }

      .cls-5, .cls-6 {
        stroke: #000;
      }

      .cls-7 {
        fill: #fcc8e0;
      }
    </style>
    <clipPath id="clip-path" transform="translate(83.58 36.28)">
      <ellipse class="cls-1" cx="126.28" cy="126.32" rx="118.72" ry="116.82"/>
    </clipPath>
  </defs>
  <g class="cls-2">
    <polygon class="cls-3" points="262.41 171.12 262.1 171.27 261.81 171.07 261.84 170.73 262.15 170.58 262.44 170.78 262.41 171.12"/>
    <g>
      <line class="cls-4" x1="228.53" y1="32.19" x2="367.24" y2="170.91"/>
      <line class="cls-4" x1="209.13" y1="29.27" x2="363.78" y2="183.93"/>
      <line class="cls-4" x1="184.95" y1="21.56" x2="363.52" y2="200.14"/>
      <line class="cls-4" x1="178.63" y1="31.72" x2="355.74" y2="208.83"/>
      <line class="cls-4" x1="156.14" y1="25.71" x2="353.61" y2="223.17"/>
      <line class="cls-4" x1="127.55" y1="13.59" x2="355.55" y2="241.59"/>
      <line class="cls-4" x1="139.51" y1="42.03" x2="341.2" y2="243.72"/>
      <line class="cls-4" x1="130.84" y1="49.83" x2="319.67" y2="238.67"/>
      <line class="cls-4" x1="120.91" y1="56.37" x2="314.09" y2="249.56"/>
      <line class="cls-4" x1="113.69" y1="65.51" x2="310.58" y2="262.64"/>
      <line class="cls-4" x1="91.14" y1="59.56" x2="288.6" y2="257.02"/>
      <line class="cls-4" x1="68.03" y1="52.92" x2="296.02" y2="280.92"/>
      <line class="cls-4" x1="64.67" y1="66.04" x2="292.67" y2="294.04"/>
      <line class="cls-4" x1="76.63" y1="94.48" x2="278.32" y2="296.17"/>
      <line class="cls-4" x1="67.96" y1="102.29" x2="256.8" y2="291.12"/>
      <line class="cls-4" x1="58.03" y1="108.83" x2="251.22" y2="302.01"/>
      <line class="cls-4" x1="50.81" y1="117.97" x2="247.7" y2="315.09"/>
      <line class="cls-4" x1="28.27" y1="112.01" x2="225.73" y2="309.48"/>
      <line class="cls-4" x1="5.15" y1="105.37" x2="233.15" y2="333.37"/>
      <line class="cls-4" x1="1.06" y1="117.76" x2="229.06" y2="345.76"/>
      <line class="cls-4" x1="214.18" y1="1.37" x2="352.89" y2="140.08"/>
      <line class="cls-4" x1="228.81" y1="1.06" x2="367.52" y2="139.77"/>
    </g>
  </g>
  <g>
    <g>
      <circle cx="210.52" cy="164.95" r="67"/>
      <ellipse cx="147.52" cy="116.95" rx="21" ry="19"/>
    </g>
    <path class="cls-5" d="M80.22,166.84l2.64-3.55a6.08,6.08,0,0,0,.71-6.08c-3.18-7.24-9.19-24.83,5.2-29.07,8-2.37,11.82,2.59,13.53,8.86a6.1,6.1,0,0,0,10.7,2.13c11.08-14.16,32.79-33.07,70.73-35.7a7.8,7.8,0,0,1,7.94,5.48c5,15.45,14.54,58.37-21.07,83.49,0,0-45.44,30.91-90-17.76A6.15,6.15,0,0,1,80.22,166.84Z" transform="translate(83.58 36.28)"/>
    <ellipse cx="153.3" cy="153.84" rx="3.02" ry="3.53" transform="matrix(0.97, -0.23, 0.23, 0.97, 52.39, 75.52)"/>
    <ellipse cx="180.44" cy="147.34" rx="2.93" ry="3.41" transform="translate(54.61 81.57) rotate(-13.25)"/>
    <path class="cls-6" d="M174.23,155.56a22.74,22.74,0,0,0,5.59,3.65c4.66,2.12,2.42,9.17-2.58,8.09l-.26-.06" transform="translate(83.58 36.28)"/>
    <path class="cls-6" d="M158.75,179.24c12.59,1.15,25.3-6,25.3-6" transform="translate(83.58 36.28)"/>
    <line class="cls-6" x1="236.76" y1="178.82" x2="242.32" y2="180.6"/>
    <line class="cls-6" x1="258.19" y1="177.2" x2="261.77" y2="172.59"/>
    <ellipse class="cls-7" cx="237.23" cy="203.84" rx="9.5" ry="6"/>
    <ellipse class="cls-7" cx="267.48" cy="191.84" rx="4.75" ry="3"/>
  </g>
</svg>
